<svg xmlns="http://www.w3.org/2000/svg" viewBox="0 0 100 100" width="100" height="100">
  <defs>
    <linearGradient id="mainGradient" x1="0%" y1="0%" x2="100%" y2="100%">
      <stop offset="0%" style="stop-color:#38bdf8;stop-opacity:1" />
      <stop offset="100%" style="stop-color:#0ea5e9;stop-opacity:1" />
    </linearGradient>
  </defs>
  <g transform="translate(50, 50)">
    <path d="M-30 10 A 35 35 0 0 1 10 -35" fill="none" stroke="url(#mainGradient)" stroke-width="5" stroke-linecap="round" />
    <path d="M30 -10 A 35 35 0 0 1 -10 35" fill="none" stroke="url(#mainGradient)" stroke-width="5" stroke-linecap="round" />
    <path d="M15 -25 A 28 28 0 0 1 32 15" fill="none" stroke="url(#mainGradient)" stroke-width="4" stroke-linecap="round" opacity="0.8" />
    <path d="M-15 25 A 28 28 0 0 1 -32 -15" fill="none" stroke="url(#mainGradient)" stroke-width="4" stroke-linecap="round" opacity="0.8" />
    <path d="M0 -18 C-12 -6 -12 10 0 10 C12 10 12 -6 0 -18 Z" fill="none" stroke="#fff" stroke-width="3" stroke-linecap="round" stroke-linejoin="round" />
    <path d="M0 -12 C-8 -2 -8 6 0 6 C8 6 8 -2 0 -12 Z" fill="url(#mainGradient)" />
  </g>
</svg>
